<mxfile host="www.draw.io" modified="2020-01-12T09:35:24.561Z" agent="Mozilla/5.0 (Macintosh; Intel Mac OS X 10_14_6) AppleWebKit/537.36 (KHTML, like Gecko) Chrome/79.0.3945.117 Safari/537.36" etag="Eh0F_vqxmfT3OIMxvbEm" version="12.5.1" type="github">
  <diagram id="OX3ow7U-1NnqJ1XtgHkA" name="Page-1">
    <mxGraphModel dx="1186" dy="476" grid="1" gridSize="10" guides="1" tooltips="1" connect="1" arrows="1" fold="1" page="1" pageScale="1" pageWidth="1169" pageHeight="827" math="0" shadow="0">
      <root>
        <mxCell id="0"/>
        <mxCell id="1" parent="0"/>
        <mxCell id="i2X6mht94DRB6EFDdSf2-5" style="rounded=0;orthogonalLoop=1;jettySize=auto;html=1;" edge="1" parent="1" source="i2X6mht94DRB6EFDdSf2-1" target="i2X6mht94DRB6EFDdSf2-2">
          <mxGeometry relative="1" as="geometry"/>
        </mxCell>
        <mxCell id="i2X6mht94DRB6EFDdSf2-8" value="" style="edgeStyle=none;rounded=0;orthogonalLoop=1;jettySize=auto;html=1;" edge="1" parent="1" source="i2X6mht94DRB6EFDdSf2-1" target="i2X6mht94DRB6EFDdSf2-3">
          <mxGeometry relative="1" as="geometry"/>
        </mxCell>
        <mxCell id="i2X6mht94DRB6EFDdSf2-1" value="アプリケーション" style="rounded=0;whiteSpace=wrap;html=1;" vertex="1" parent="1">
          <mxGeometry x="210" y="152" width="180" height="80" as="geometry"/>
        </mxCell>
        <mxCell id="i2X6mht94DRB6EFDdSf2-2" value="ドメイン" style="rounded=0;whiteSpace=wrap;html=1;" vertex="1" parent="1">
          <mxGeometry x="480" y="200" width="180" height="80" as="geometry"/>
        </mxCell>
        <mxCell id="i2X6mht94DRB6EFDdSf2-6" style="rounded=0;orthogonalLoop=1;jettySize=auto;html=1;" edge="1" parent="1" source="i2X6mht94DRB6EFDdSf2-3" target="i2X6mht94DRB6EFDdSf2-2">
          <mxGeometry relative="1" as="geometry"/>
        </mxCell>
        <mxCell id="i2X6mht94DRB6EFDdSf2-3" value="リポジトリ" style="rounded=0;whiteSpace=wrap;html=1;" vertex="1" parent="1">
          <mxGeometry x="210" y="280" width="180" height="80" as="geometry"/>
        </mxCell>
        <mxCell id="i2X6mht94DRB6EFDdSf2-7" value="" style="edgeStyle=none;rounded=0;orthogonalLoop=1;jettySize=auto;html=1;" edge="1" parent="1" source="i2X6mht94DRB6EFDdSf2-4" target="i2X6mht94DRB6EFDdSf2-1">
          <mxGeometry relative="1" as="geometry"/>
        </mxCell>
        <mxCell id="i2X6mht94DRB6EFDdSf2-4" value="プレゼンテーション" style="rounded=0;whiteSpace=wrap;html=1;" vertex="1" parent="1">
          <mxGeometry x="210" y="50" width="180" height="80" as="geometry"/>
        </mxCell>
      </root>
    </mxGraphModel>
  </diagram>
</mxfile>
